<svg xmlns="http://www.w3.org/2000/svg"  viewBox="18 50 323 83" version="1.1"><path d="M 74 52 C 69.697 56.303, 72.603 63, 78.772 63 C 84.350 63, 87.029 56.029, 83 52 C 81.900 50.900, 79.875 50, 78.500 50 C 77.125 50, 75.100 50.900, 74 52 M 57.083 68.604 C 48.896 76.306, 47.735 78.592, 50.571 81.429 C 52 82.857, 51.861 83, 49.047 83 C 46.664 83, 45.731 82.424, 45 80.500 C 44.083 78.088, 43.731 78, 35.025 78 C 25.111 78, 24.370 78.564, 28.255 83.151 C 30.348 85.621, 33.125 86.711, 54.835 93.580 C 55.795 93.884, 55.303 95.183, 53.085 98.198 C 51.388 100.506, 50 103.180, 50 104.140 C 50 106.488, 53.781 109.019, 56.026 108.175 C 57.833 107.495, 71 91.003, 71 89.419 C 71 88.951, 68.862 86.398, 66.250 83.745 L 61.500 78.921 65.492 75.569 L 69.483 72.217 72.495 74.859 C 75.708 77.676, 88.808 81.671, 91.475 80.648 C 92.314 80.326, 93 78.943, 93 77.574 C 93 75.366, 92.237 74.857, 86.242 73.072 C 80.748 71.436, 78.556 70.118, 74.529 66.030 C 71.554 63.009, 68.695 61, 67.371 61 C 66 61, 62.109 63.876, 57.083 68.604 M 96.045 66.383 C 94.630 70.102, 94.729 71.530, 96.500 73 C 98.816 74.922, 98.370 80.304, 95.686 82.826 C 92.275 86.030, 88.519 85.634, 71.500 80.275 C 69.908 79.774, 70.162 80.402, 72.750 83.358 C 76.263 87.370, 76.630 88.941, 74.843 92.316 C 72.688 96.387, 60.821 111.025, 58.799 112.107 C 56.069 113.569, 50.365 112.359, 48.686 109.963 C 47.826 108.734, 45.632 107.774, 42.796 107.386 C 38.819 106.840, 38.081 107.047, 36.639 109.106 C 35.737 110.392, 35 112.175, 35 113.068 C 35 117.136, 42.372 119.666, 45 116.500 C 45.896 115.420, 48.267 115, 53.467 115 C 59.420 115, 61.008 115.352, 62.500 117 C 64.035 118.696, 65.580 119, 72.655 119 C 78.896 119, 81 118.668, 81 117.682 C 81 113.107, 84.429 105.742, 88.518 101.535 C 93.550 96.357, 104.840 90.446, 111.649 89.425 C 114.056 89.064, 116.225 88.446, 116.469 88.050 C 117.550 86.302, 112.396 78.853, 105.059 71.559 L 97.089 63.635 96.045 66.383 M 205 68.500 L 205 72 210 72 L 215 72 215 68.500 L 215 65 210 65 L 205 65 205 68.500 M 228 67.930 C 228 70.208, 228.501 70.932, 230.250 71.180 C 232.481 71.497, 232.502 71.658, 232.772 90.338 C 233.035 108.520, 232.974 109.194, 231.022 109.704 C 229.582 110.081, 229 111.064, 229 113.117 L 229 116 238 116 L 247 116 247 113.117 C 247 111.074, 246.417 110.081, 245 109.710 C 243.411 109.295, 243 108.346, 243 105.094 C 243 101.675, 243.328 101, 244.987 101 C 248.090 101, 251.781 107.651, 251.230 112.250 L 250.781 116 258.891 116 L 267 116 267 113.117 C 267 111.137, 266.412 110.079, 265.123 109.742 C 263.384 109.288, 255 98.143, 255 96.287 C 255 94.384, 260.332 87.824, 262.571 86.973 C 264.258 86.332, 265 85.278, 265 83.525 C 265 81.012, 264.957 81, 256 81 C 247.115 81, 247 81.031, 247 83.450 C 247 84.798, 247.653 86.266, 248.452 86.713 C 249.680 87.401, 249.588 88.022, 247.853 90.763 C 246.726 92.543, 245.173 94, 244.402 94 C 243.264 94, 243 91.271, 243 79.500 L 243 65 235.500 65 L 228 65 228 67.930 M 150 70.855 C 150 73.343, 150.503 74.088, 152.523 74.595 L 155.046 75.228 154.773 92.364 C 154.504 109.279, 154.471 109.504, 152.250 109.820 C 150.501 110.068, 150 110.792, 150 113.070 L 150 116 163.750 115.994 C 171.313 115.991, 179.159 115.528, 181.186 114.965 C 185.617 113.734, 189.684 109.202, 190.563 104.514 C 191.335 100.399, 188.594 94.050, 185.364 92.472 C 183.243 91.437, 183.250 91.404, 186.228 88.071 C 188.847 85.140, 189.165 84.155, 188.732 80.316 C 188.460 77.898, 187.397 74.991, 186.371 73.857 C 182.438 69.511, 179.121 68.662, 164.250 68.195 L 150 67.748 150 70.855 M 165 82 L 165 88 170.429 88 C 176.636 88, 179 86.368, 179 82.084 C 179 77.927, 176.203 76, 170.171 76 L 165 76 165 82 M 285.396 81.429 C 278.718 84.336, 274.599 95.348, 276.966 103.964 C 278.652 110.101, 284.210 115.522, 289.782 116.463 C 294.687 117.292, 303.289 115.562, 305.097 113.383 C 306.904 111.206, 304.586 106.520, 302.227 107.579 C 301.277 108.006, 298.458 108.537, 295.962 108.760 C 290.948 109.207, 287.701 107.312, 286.520 103.250 C 285.870 101.017, 285.947 101, 296.433 101 L 307 101 307 95.368 C 307 88.570, 304.506 83.943, 299.583 81.606 C 295.497 79.667, 289.613 79.594, 285.396 81.429 M 335.455 82.455 C 333.190 84.720, 333 84.758, 333 82.955 C 333 81.201, 332.279 81, 326 81 L 319 81 319 84 C 319 86.544, 319.385 87, 321.533 87 L 324.066 87 323.783 98.250 C 323.511 109.057, 323.411 109.513, 321.250 109.820 C 319.501 110.068, 319 110.792, 319 113.070 L 319 116 328.500 116 L 338 116 338 113.117 C 338 111.074, 337.417 110.081, 336 109.710 C 334.189 109.237, 334 108.346, 334 100.294 C 334 90.407, 334.694 89, 339.575 89 C 342.331 89, 342.832 88.588, 343.375 85.875 C 344.436 80.571, 344.200 80, 340.955 80 C 339.054 80, 336.986 80.923, 335.455 82.455 M 200.184 83.750 C 200.410 85.719, 201.139 86.591, 202.750 86.820 C 204.928 87.129, 205 87.492, 205 98.163 C 205 108.346, 204.847 109.227, 203 109.710 C 201.583 110.081, 201 111.074, 201 113.117 L 201 116 210.500 116 L 220 116 220 113.070 C 220 110.792, 219.499 110.068, 217.750 109.820 C 215.552 109.507, 215.494 109.170, 215.223 95.250 L 214.945 81 207.406 81 L 199.867 81 200.184 83.750 M 289.736 88.250 C 288.831 88.938, 287.631 90.737, 287.070 92.250 L 286.050 95 292.025 95 C 297.333 95, 298 94.777, 298 93 C 298 90.748, 294.684 87, 292.691 87 C 291.971 87, 290.642 87.563, 289.736 88.250 M 32.500 94.890 C 22.600 99.459, 18.373 110.731, 22.896 120.500 C 25.051 125.156, 29.313 129.424, 33.315 130.936 C 37.205 132.406, 44.424 132.268, 48.298 130.649 C 51.501 129.311, 58 122.824, 58 120.965 C 58 119.006, 51.353 120.026, 48 122.500 C 40.157 128.286, 29.329 123.585, 28.347 113.966 C 27.507 105.745, 34.535 99.072, 42.467 100.560 C 45.235 101.079, 46.027 100.818, 46.958 99.078 C 47.989 97.153, 47.681 96.792, 43.461 94.983 C 37.844 92.576, 37.521 92.573, 32.500 94.890 M 108.345 95.148 C 105.843 95.830, 105.298 96.424, 105.714 98.014 C 106.002 99.117, 107.733 100.729, 109.561 101.596 C 114.068 103.735, 116.167 107.276, 116.167 112.742 C 116.167 120.084, 111.321 124.959, 104 124.982 C 96.443 125.005, 90.201 117.774, 91.554 110.562 C 92.771 104.076, 88.491 105.904, 86.152 112.869 C 84.764 117.004, 85.509 120.488, 88.698 124.771 C 95.593 134.030, 107.809 135.135, 116.934 127.324 C 124.437 120.902, 125.600 109.985, 119.719 101.189 C 116.346 96.145, 112.393 94.045, 108.345 95.148 M 165 102 L 165 109 169.435 109 C 174.294 109, 179.034 107.543, 180.214 105.687 C 180.630 105.034, 180.976 103.063, 180.985 101.307 C 181.006 96.849, 178.014 95, 170.777 95 L 165 95 165 102 M 96.766 100.105 L 94.032 102.143 96.016 106.032 C 97.107 108.170, 98.007 110.951, 98.015 112.210 C 98.035 115.091, 98.893 116.381, 101.817 117.921 C 103.724 118.926, 104.574 118.854, 106.621 117.513 C 107.988 116.617, 109.367 115.206, 109.685 114.378 C 110.517 112.210, 108.282 107.887, 106.025 107.296 C 104.864 106.993, 103.556 105.169, 102.736 102.709 C 101.098 97.795, 100.321 97.456, 96.766 100.105" stroke="none" fill="#26385d" fill-rule="evenodd"/></svg>